<svg width="125" height="140" viewBox="0 0 125 140" fill="none" xmlns="http://www.w3.org/2000/svg">
<g clip-path="url(#clip0_417_392)">
<g clip-path="url(#clip1_417_392)">
<path d="M8.15138 88.3632L9.60051 90.1747L8.87594 87.8198C8.6948 86.733 7.42681 88.001 8.15138 88.3632ZM9.78165 87.2764C10.3251 88.1821 10.8685 89.0878 10.8685 89.9935C10.8685 91.2615 11.9554 91.8049 12.8611 92.1672C11.5931 90.7181 10.8685 86.733 9.78165 87.2764ZM79.3401 10.4723C82.4195 10.4723 85.3178 10.11 88.5783 10.8346C96.5485 12.8271 103.251 16.8123 107.779 22.4276L120.459 42.7155C121.003 47.7875 122.09 53.4029 121.908 59.5617C123.176 59.5617 122.995 57.7503 124.444 57.388C122.995 61.0108 122.271 65.5394 121.908 70.7925C121.003 67.8942 121.908 63.5468 122.09 61.192C120.822 63.1845 120.097 61.7354 120.097 60.8297C120.278 59.3806 119.554 59.5617 119.01 59.0183C117.018 57.2069 115.75 55.2143 114.3 52.1349C115.206 49.78 115.387 46.3384 112.489 44.5269C111.583 43.9835 110.496 43.0778 109.953 41.6287C109.228 39.6361 107.96 37.2813 108.323 34.2019C108.504 33.2961 105.606 36.1944 103.975 34.9264C96.9108 30.0356 89.8463 24.4202 81.3326 19.7105C76.8041 19.7105 73.5435 18.0802 71.9133 16.0877C70.4641 14.2763 71.551 11.9214 73.7247 11.7403C74.9927 11.7403 76.4418 11.378 77.5287 12.1026C77.7098 11.378 78.4344 10.4723 79.3401 10.4723ZM61.4071 6.30603L61.7693 6.48717C63.5807 6.84945 64.4865 9.38544 66.479 8.47973C66.479 9.74772 66.6602 11.0157 66.2979 11.9214C65.7544 13.3706 64.1242 13.3706 62.8562 13.3706C50.7197 12.646 43.6552 17.718 36.2283 22.0654C34.2358 23.3334 32.0621 24.2391 30.4318 25.8693C22.6427 33.115 14.1291 39.8173 12.1365 53.2217L10.5062 68.0754C10.3251 69.7056 8.51366 71.3359 8.87594 73.3285L10.1439 82.2044C8.87595 80.9364 8.15138 82.5667 8.51366 83.2913C8.6948 83.8347 9.41937 85.6461 10.5062 84.0158C11.9554 86.733 13.4045 91.9861 15.397 94.3409C21.5559 101.587 29.5261 108.108 36.0472 114.629C37.6775 114.267 38.9455 114.267 39.3078 113.18C39.8512 114.267 38.7643 115.353 37.8586 115.535C40.7569 117.346 44.0174 118.976 48.3648 119.338C53.9802 119.701 59.2333 120.606 64.1242 121.874C66.6602 121.15 69.1961 120.788 71.9133 120.606C72.819 120.606 73.3624 119.157 74.4492 118.795L74.6304 116.984C75.7172 118.614 75.5361 116.44 74.8115 115.353C76.0795 116.44 76.4418 117.346 76.9852 118.07C76.9852 117.527 78.4344 115.534 78.4344 117.889L78.7967 115.535C79.3401 115.172 79.5212 117.527 80.0646 115.897C80.6081 114.267 81.6949 115.534 82.7818 114.991C82.4195 115.716 82.6006 117.165 83.8686 116.259L85.3178 114.991C86.2235 117.165 87.6726 116.259 88.3972 115.897C96.3674 110.825 104.338 104.847 111.946 98.8695L111.764 101.224L112.67 98.326C113.576 99.2317 114.3 98.5072 114.663 97.9637C115.75 96.1523 117.199 94.3409 119.554 92.7106C116.655 100.5 113.214 106.659 108.866 111.731L107.055 113.904C107.055 115.172 106.692 116.802 105.243 116.984C104.519 117.165 103.07 116.621 101.983 117.708C101.439 118.433 103.251 119.882 101.802 118.795C100.534 117.889 99.2657 118.795 97.8165 119.157C96.7297 119.52 98.5411 120.606 98.9034 121.331C99.2657 122.056 99.628 122.78 99.4468 123.686L97.4543 121.512C95.0994 122.78 93.6503 125.135 91.6577 126.946C90.752 127.671 91.1143 128.939 91.1143 130.026C89.8463 130.026 88.3972 129.664 87.6726 130.388C87.1292 131.113 87.3103 132.2 87.3103 133.286C85.4989 133.105 85.3178 130.388 83.6875 130.932C82.0572 131.294 80.2458 131.475 78.7967 132.381C79.8835 134.554 76.9852 133.286 77.3475 133.649C74.6304 132.018 72.2756 130.75 69.3773 131.837C63.2185 129.845 55.6105 130.75 49.9951 131.475C49.9951 130.569 50.1763 129.664 49.814 129.482C49.4517 130.388 48.3648 130.026 48.546 130.026C45.1043 127.671 41.6626 126.222 38.0398 124.229C34.7792 124.592 31.6998 122.961 30.7941 122.056C28.2581 119.701 25.3598 120.969 23.005 120.425C17.933 119.157 16.1216 113.904 15.5782 110.281C15.2159 108.47 13.7668 107.745 13.2233 107.927C10.8685 100.319 7.24567 93.4352 4.3474 86.3707C3.62283 84.5593 3.80398 82.7478 3.80398 80.7553C4.70969 81.1176 5.61539 80.9364 5.43425 79.6684C4.52854 73.6908 2.35484 69.1622 0 64.8148C1.26799 58.656 1.44913 51.4103 4.3474 45.9761C6.88339 41.0852 11.5931 38.5493 14.8536 34.383C15.9405 32.9339 15.9405 30.9413 17.0273 29.6733C20.6502 26.0505 24.273 22.2465 28.2581 18.986C30.0695 17.5368 32.2432 18.9859 34.9604 18.4425C35.8661 15.182 39.4889 12.2837 42.9306 13.1894C44.3797 13.5517 47.278 9.74772 48.1837 9.38544C49.6328 8.84201 48.9083 10.8346 48.9083 12.1026C52.35 9.38544 57.0596 7.93631 61.4071 6.30603Z" fill="#FF8D76"/>
<g clip-path="url(#clip2_417_392)">
<g clip-path="url(#clip3_417_392)">
<g clip-path="url(#clip4_417_392)">
<g clip-path="url(#clip5_417_392)">
<g clip-path="url(#clip6_417_392)">
<g clip-path="url(#clip7_417_392)">
<g clip-path="url(#clip8_417_392)">
<path d="M27.021 84.8791C26.3613 84.6392 25.8415 84.2094 25.4617 83.5897C25.0819 82.97 24.892 82.2803 24.892 81.5206C24.892 80.761 25.0569 80.0033 25.3867 79.2477C25.7166 78.494 26.1664 77.8723 26.7361 77.3825C28.4654 77.3825 29.33 77.9722 29.33 79.1517C29.33 79.5315 29.26 79.9064 29.1201 80.2762C29.4 80.2662 29.7398 80.2612 30.1396 80.2612V80.4111C30.0397 80.4111 29.9447 80.4111 29.8548 80.4111C28.4354 80.4111 26.8661 80.5461 25.1469 80.816C25.1169 81.0758 25.1019 81.3207 25.1019 81.5506C25.1019 82.2503 25.2718 82.887 25.6116 83.4608C25.9515 84.0365 26.4313 84.4393 27.051 84.6692C27.4208 84.5193 27.7957 84.3014 28.1755 84.0155C28.5553 83.7317 28.8652 83.4298 29.1051 83.1099L29.24 83.1999C28.9901 83.5297 28.6583 83.8516 28.2445 84.1655C27.8287 84.4813 27.4208 84.7192 27.021 84.8791ZM29.1351 79.1517C29.1351 78.0822 28.3554 77.5474 26.7961 77.5474C25.9465 78.2771 25.4067 79.3066 25.1768 80.636C26.2664 80.4561 27.5258 80.3362 28.9552 80.2762C29.0751 79.8864 29.1351 79.5115 29.1351 79.1517ZM30.7993 80.3062C30.7993 79.1967 31.0962 78.0922 31.6899 76.9927C32.2857 75.8932 33.0783 75.1185 34.0679 74.6687H34.0979V79.7664C34.2678 79.8864 34.3877 80.0363 34.4577 80.2162L34.5477 80.5461L34.5776 80.5311L34.5027 80.2012L34.4877 74.6687H34.6526C35.7821 74.6687 36.5068 74.7936 36.8266 75.0435C37.1765 75.3034 37.3514 75.6653 37.3514 76.129C37.3514 76.5948 37.2435 76.9547 37.0276 77.2086C36.8136 77.4645 36.5338 77.5924 36.1879 77.5924C35.8441 77.5924 35.5722 77.4894 35.3723 77.2835C35.1724 77.0796 35.0724 76.8127 35.0724 76.4829C35.0724 76.3629 35.0974 76.243 35.1474 76.1231L35.3123 76.183C35.2823 76.293 35.2673 76.3929 35.2673 76.4829C35.2673 76.7628 35.3493 76.9877 35.5132 77.1576C35.6792 77.3275 35.9071 77.4125 36.1969 77.4125C36.4868 77.4125 36.7167 77.3025 36.8866 77.0826C37.0565 76.8627 37.1415 76.6048 37.1415 76.309C37.1415 76.0151 37.0965 75.7752 37.0066 75.5893C36.9166 75.4054 36.8086 75.2654 36.6827 75.1695C36.5588 75.0755 36.3768 75.0036 36.1369 74.9536C35.7971 74.8836 35.3173 74.8486 34.6976 74.8486V84.6542C35.6971 84.4743 36.5218 84.1045 37.1715 83.5447L37.3214 83.6947C36.5618 84.3144 35.6372 84.7042 34.5477 84.8641C33.2382 84.7642 32.2857 84.3294 31.6899 83.5597C31.0962 82.7901 30.7993 81.7056 30.7993 80.3062ZM34.4877 84.6692V81.1008C34.4877 80.1812 34.0929 79.7214 33.3032 79.7214C33.0733 79.7214 32.8734 79.7664 32.7035 79.8564L32.6285 79.7364C32.8284 79.6165 33.0503 79.5565 33.2942 79.5565C33.5401 79.5565 33.738 79.5915 33.888 79.6615V74.9686C33.0083 75.4384 32.3087 76.185 31.7889 77.2086C31.2691 78.2341 31.0092 79.2666 31.0092 80.3062C31.0092 83.005 32.1687 84.4593 34.4877 84.6692ZM41.6845 84.8492C40.6649 84.8492 39.9223 84.5063 39.4565 83.8206C38.9927 83.1369 38.7608 82.2203 38.7608 81.0708C38.7608 79.7015 39.1656 78.527 39.9752 77.5474C40.2951 77.4774 40.6199 77.4425 40.9498 77.4425C41.9793 77.4425 42.724 77.7393 43.1838 78.3331C43.6436 78.9288 43.8735 79.7914 43.8735 80.9209C43.8735 82.4902 43.4687 83.7646 42.659 84.7442C42.3392 84.8142 42.0143 84.8492 41.6845 84.8492ZM41.7295 84.6842C42.0193 84.6842 42.2992 84.6542 42.5691 84.5943C43.3087 83.6547 43.6786 82.4352 43.6786 80.9359C43.6786 79.8464 43.4637 79.0188 43.0339 78.453C42.6041 77.8893 41.8944 77.6074 40.9048 77.6074C40.615 77.6074 40.3351 77.6374 40.0652 77.6973C39.3255 78.6069 38.9557 79.7264 38.9557 81.0558C38.9557 83.4748 39.8803 84.6842 41.7295 84.6842ZM51.4871 79.6915C51.4871 78.6319 51.1323 77.9222 50.4226 77.5624C49.8428 77.8223 49.2911 78.1941 48.7673 78.6779C48.2415 79.1637 47.8137 79.6965 47.4839 80.2762V83.6497C47.4839 84.3294 47.9137 84.6692 48.7733 84.6692C48.9532 84.6692 49.1531 84.6442 49.373 84.5943L49.403 84.7292C49.2231 84.7992 48.9832 84.8342 48.6833 84.8342C48.3835 84.8342 48.1036 84.7692 47.8437 84.6392C47.5838 84.5093 47.4289 84.3144 47.3789 84.0545C47.329 84.3144 47.177 84.5093 46.9231 84.6392C46.6672 84.7692 46.3894 84.8342 46.0895 84.8342C45.7896 84.8342 45.5497 84.7992 45.3698 84.7292L45.3998 84.5943C45.6197 84.6442 45.8196 84.6692 45.9995 84.6692C46.8592 84.6692 47.289 84.3294 47.289 83.6497V79.5865C47.289 78.2571 46.8592 77.5924 45.9995 77.5924C45.7397 77.5924 45.5448 77.6324 45.4148 77.7123L45.3248 77.6074C45.4748 77.4874 45.7147 77.4275 46.0445 77.4275C47.0041 77.4275 47.4839 78.1471 47.4839 79.5865V79.9913C47.8237 79.4016 48.2585 78.8818 48.7883 78.432C49.3181 77.9822 49.8678 77.6324 50.4376 77.3825C51.2672 77.7523 51.682 78.537 51.682 79.7364C51.682 79.7864 51.682 79.8314 51.682 79.8714L51.607 83.005C51.607 83.0749 51.607 83.1449 51.607 83.2149C51.607 83.7047 51.675 84.0775 51.811 84.3334C51.9449 84.5873 52.2568 84.7142 52.7465 84.7142C53.0064 84.7142 53.2013 84.6742 53.3313 84.5943L53.4212 84.6992C53.2713 84.8192 53.0314 84.8791 52.7016 84.8791C52.1618 84.8791 51.812 84.7362 51.652 84.4503C51.4921 84.1665 51.4121 83.7496 51.4121 83.1999C51.4121 83.1399 51.4121 83.0749 51.4121 83.005L51.4871 79.8714C51.4871 79.8114 51.4871 79.7514 51.4871 79.6915ZM56.4799 77.5474C55.9401 78.0172 55.5233 78.6089 55.2294 79.3226C54.9336 80.0383 54.7856 80.763 54.7856 81.4967C54.7856 82.2323 54.9556 82.887 55.2954 83.4608C55.6352 84.0365 56.115 84.4393 56.7348 84.6692C57.1046 84.5193 57.4794 84.3014 57.8593 84.0155C58.2391 83.7317 58.5489 83.4298 58.7888 83.1099L58.9238 83.1999C58.6739 83.5297 58.342 83.8516 57.9282 84.1655C57.5124 84.4813 57.1046 84.7192 56.7048 84.8791C56.0451 84.6392 55.5253 84.2094 55.1455 83.5897C54.7656 82.97 54.5757 82.2803 54.5757 81.5206C54.5757 80.761 54.7406 80.0033 55.0705 79.2477C55.4004 78.494 55.8502 77.8723 56.4199 77.3825C57.2995 77.3825 58.1091 77.5924 58.8488 78.0122L58.7738 78.1471C58.0342 77.7473 57.2695 77.5474 56.4799 77.5474ZM62.7321 84.8791C62.0724 84.6392 61.5526 84.2094 61.1728 83.5897C60.7929 82.97 60.603 82.2803 60.603 81.5206C60.603 80.761 60.768 80.0033 61.0978 79.2477C61.4277 78.494 61.8775 77.8723 62.4472 77.3825C64.1764 77.3825 65.041 77.9722 65.041 79.1517C65.041 79.5315 64.9711 79.9064 64.8311 80.2762C65.111 80.2662 65.4509 80.2612 65.8507 80.2612V80.4111C65.7507 80.4111 65.6558 80.4111 65.5658 80.4111C64.1464 80.4111 62.5771 80.5461 60.8579 80.816C60.8279 81.0758 60.8129 81.3207 60.8129 81.5506C60.8129 82.2503 60.9829 82.887 61.3227 83.4608C61.6626 84.0365 62.1423 84.4393 62.7621 84.6692C63.1319 84.5193 63.5067 84.3014 63.8866 84.0155C64.2664 83.7317 64.5763 83.4298 64.8161 83.1099L64.9511 83.1999C64.7012 83.5297 64.3683 83.8516 63.9525 84.1655C63.5387 84.4813 63.1319 84.7192 62.7321 84.8791ZM64.8461 79.1517C64.8461 78.0822 64.0665 77.5474 62.5072 77.5474C61.6576 78.2771 61.1178 79.3066 60.8879 80.636C61.9774 80.4561 63.2369 80.3362 64.6662 80.2762C64.7862 79.8864 64.8461 79.5115 64.8461 79.1517ZM68.4145 86.6484V84.3694C68.1447 84.2894 67.8998 84.2494 67.6799 84.2494C67.46 84.2494 67.2551 84.2744 67.0651 84.3244L67.0352 84.1894C67.2351 84.1195 67.455 84.0845 67.6949 84.0845C67.9348 84.0845 68.1747 84.1245 68.4145 84.2044V79.6015C68.4145 78.2721 67.9847 77.6074 67.1251 77.6074C66.8652 77.6074 66.6703 77.6474 66.5404 77.7273L66.4504 77.6224C66.6004 77.5024 66.8402 77.4425 67.1701 77.4425C68.1297 77.4425 68.6095 78.1621 68.6095 79.6015V79.9164C68.9493 79.3466 69.3961 78.8318 69.9499 78.372C70.5056 77.9123 71.0284 77.5824 71.5182 77.3825C72.0479 77.6624 72.4427 78.0922 72.7026 78.6719C72.9625 79.2517 73.0925 79.9264 73.0925 80.696C73.0925 81.4657 72.9145 82.2353 72.5587 83.005C72.2049 83.7746 71.6981 84.3994 71.0384 84.8791C70.1088 84.8791 69.2991 84.7392 68.6095 84.4593V86.6484C68.6095 87.328 69.0393 87.6679 69.8989 87.6679C70.0788 87.6679 70.2787 87.6429 70.4986 87.5929L70.5286 87.7279C70.3487 87.7978 70.1088 87.8328 69.8089 87.8328C69.5091 87.8328 69.2292 87.7679 68.9693 87.6379C68.7094 87.508 68.5545 87.3131 68.5045 87.0532C68.4545 87.3131 68.3016 87.508 68.0457 87.6379C67.7918 87.7679 67.5149 87.8328 67.2151 87.8328C66.9152 87.8328 66.6753 87.7978 66.4954 87.7279L66.5254 87.5929C66.7453 87.6429 66.9452 87.6679 67.1251 87.6679C67.9847 87.6679 68.4145 87.328 68.4145 86.6484ZM70.9934 84.7142C71.6031 84.2344 72.0699 83.6297 72.3938 82.9C72.7196 82.1704 72.8825 81.4427 72.8825 80.717C72.8825 79.9933 72.7676 79.3536 72.5377 78.7979C72.3078 78.2441 71.958 77.8423 71.4882 77.5924C71.0284 77.7723 70.5056 78.1142 69.9199 78.6179C69.3361 79.1237 68.8993 79.6565 68.6095 80.2162V84.2644C69.2592 84.5643 70.0538 84.7142 70.9934 84.7142ZM76.0581 77.7723H74.5738V77.6074H76.0581L76.1031 75.8832H76.298L76.253 77.6074H78.667V77.7723H76.253L76.1631 82.3903C76.1631 82.4202 76.1631 82.4502 76.1631 82.4802C76.1631 83.5997 76.5179 84.3394 77.2276 84.6992C77.8473 84.4094 78.3771 84.0245 78.8169 83.5447L78.9368 83.6497C78.507 84.1395 77.9323 84.5493 77.2126 84.8791C76.383 84.5093 75.9682 83.7247 75.9682 82.5252C75.9682 82.4752 75.9682 82.4302 75.9682 82.3903L76.0581 77.7723ZM85.339 78.6119V82.6751C85.339 84.0045 85.7688 84.6692 86.6284 84.6692C86.8883 84.6692 87.0832 84.6293 87.2132 84.5493L87.3031 84.6542C87.1532 84.7742 86.9133 84.8342 86.5834 84.8342C85.6239 84.8342 85.1441 84.1145 85.1441 82.6751V82.2853C84.7942 82.865 84.3524 83.3818 83.8187 83.8356C83.2829 84.2914 82.7402 84.6392 82.1904 84.8791C81.3608 84.5093 80.9459 83.7247 80.9459 82.5252C80.9459 82.4752 80.9459 82.4302 80.9459 82.3903L81.0209 79.2567C81.0209 79.1867 81.0209 79.1167 81.0209 79.0467C81.0209 78.557 80.9539 78.1841 80.82 77.9282C80.6841 77.6744 80.3712 77.5474 79.8814 77.5474C79.6215 77.5474 79.4266 77.5874 79.2967 77.6674L79.2067 77.5624C79.3567 77.4425 79.5966 77.3825 79.9264 77.3825C80.4662 77.3825 80.816 77.5244 80.9759 77.8083C81.1359 78.0942 81.2158 78.512 81.2158 79.0617C81.2158 79.1217 81.2158 79.1867 81.2158 79.2567L81.1409 82.3903C81.1409 82.4502 81.1409 82.5102 81.1409 82.5702C81.1409 83.6297 81.4957 84.3394 82.2054 84.6992C82.7751 84.4393 83.3229 84.0665 83.8487 83.5807C84.3724 83.0969 84.8042 82.5652 85.1441 81.9854V78.6119C85.1441 77.9322 84.7143 77.5924 83.8547 77.5924C83.6747 77.5924 83.4748 77.6174 83.2549 77.6674L83.2249 77.5324C83.4049 77.4625 83.6447 77.4275 83.9446 77.4275C84.2445 77.4275 84.5224 77.4924 84.7782 77.6224C85.0321 77.7523 85.1841 77.9472 85.234 78.2071C85.284 77.9472 85.4389 77.7523 85.6988 77.6224C85.9587 77.4924 86.2386 77.4275 86.5385 77.4275C86.8383 77.4275 87.0782 77.4625 87.2581 77.5324L87.2281 77.6674C87.0082 77.6174 86.8083 77.5924 86.6284 77.5924C85.7688 77.5924 85.339 77.9322 85.339 78.6119ZM93.2255 78.387V82.6751C93.2255 84.0045 93.6553 84.6692 94.5149 84.6692C94.7748 84.6692 94.9697 84.6293 95.0996 84.5493L95.1896 84.6542C95.0397 84.7742 94.7998 84.8342 94.4699 84.8342C93.5103 84.8342 93.0306 84.1145 93.0306 82.6751V82.3453C92.6907 82.915 92.2429 83.4298 91.6872 83.8896C91.1334 84.3494 90.6116 84.6792 90.1219 84.8791C89.5921 84.5993 89.1973 84.1695 88.9374 83.5897C88.6775 83.01 88.5476 82.3353 88.5476 81.5656C88.5476 80.796 88.7245 80.0263 89.0783 79.2567C89.4342 78.487 89.9419 77.8623 90.6016 77.3825C91.4912 77.3825 92.3059 77.5924 93.0456 78.0122C93.0955 77.5124 93.2605 77.0876 93.5403 76.7378L93.6753 76.8127C93.3754 77.2925 93.2255 77.8173 93.2255 78.387ZM90.6466 77.5474C90.0369 78.0272 89.5691 78.6319 89.2432 79.3616C88.9194 80.0913 88.7575 80.818 88.7575 81.5416C88.7575 82.2673 88.8724 82.907 89.1023 83.4608C89.3322 84.0165 89.6821 84.4193 90.1518 84.6692C90.6116 84.4893 91.1334 84.1465 91.7171 83.6407C92.3029 83.1369 92.7407 82.6052 93.0306 82.0454V78.1921C92.2909 77.7623 91.4962 77.5474 90.6466 77.5474ZM97.0638 77.8173V83.005C97.0638 83.3348 97.0708 83.5817 97.0847 83.7456C97.1007 83.9116 97.1457 84.0815 97.2197 84.2554C97.2957 84.4313 97.4106 84.5513 97.5645 84.6153C97.7205 84.6812 97.9304 84.7142 98.1943 84.7142C98.4601 84.7142 98.658 84.6742 98.788 84.5943L98.8779 84.6992C98.728 84.8192 98.4881 84.8791 98.1583 84.8791C97.6185 84.8791 97.2687 84.7392 97.1087 84.4593C96.9488 84.1795 96.8688 83.7097 96.8688 83.05V77.8773C96.8688 75.1085 97.7634 73.7241 99.5526 73.7241V73.8741C97.8934 73.8741 97.0638 75.1885 97.0638 77.8173Z" fill="#FF8D76"/>
</g>
</g>
</g>
</g>
<g clip-path="url(#clip9_417_392)">
<g clip-path="url(#clip10_417_392)">
<path d="M68.1622 60.0749C68.4928 58.9433 68.4928 57.7407 68.1622 56.6091C67.8227 55.464 67.1618 54.4404 66.2579 53.6597C65.3474 52.8707 64.2242 52.368 63.0292 52.2146C62.7316 52.1786 62.4318 52.163 62.1321 52.168C61.8324 52.1779 61.5335 52.2054 61.2371 52.2505C60.6487 52.3568 60.0787 52.5471 59.5444 52.8155C59.0033 53.059 58.5007 53.3804 58.0528 53.7697C57.5119 54.2291 57.0557 54.7798 56.705 55.3968C56.6479 55.5004 56.5865 55.6084 56.5315 55.7078L56.3834 56.0315C55.998 56.904 55.824 57.8551 55.8756 58.8075C55.9312 59.7527 56.2027 60.6726 56.669 61.4967C57.1333 62.3149 57.7808 63.0144 58.5606 63.5406L58.5944 63.5638L58.6071 63.6929C58.6258 63.8795 58.6569 64.0647 58.7002 64.2473C58.7785 64.5583 58.8906 64.7424 59.0366 64.7064C59.1826 64.6704 59.2863 64.4948 59.3731 64.1838C59.4186 64.01 59.4519 63.8333 59.4725 63.6548L59.4915 63.4983C59.4926 63.4813 59.4926 63.4644 59.4915 63.4475C59.493 63.4186 59.493 63.3896 59.4915 63.3607C59.4917 63.3031 59.4853 63.2456 59.4725 63.1893C59.4354 63.0789 59.3748 62.9778 59.2948 62.8931C59.2574 62.8541 59.2171 62.8181 59.1742 62.7852L59.1086 62.7302C58.4697 62.2193 57.9538 61.5712 57.5993 60.834C57.2448 60.0967 57.0606 59.2891 57.0605 58.4711C57.0522 57.8195 57.1715 57.1726 57.4117 56.5668C57.8408 56.7834 58.311 56.9067 58.7912 56.9286L59.6143 56.9858C59.4439 57.8221 59.4274 58.6825 59.5656 59.5247C59.5656 59.6326 59.5825 59.7363 59.591 59.8527C58.9287 59.8527 58.2644 59.876 57.6042 59.8527C57.5344 59.8527 57.4244 59.9627 57.3926 60.041C57.3655 60.1143 57.3657 60.1949 57.3933 60.268C57.4209 60.3411 57.474 60.4018 57.5429 60.4388C57.9845 60.7527 58.5079 60.9313 59.0493 60.9529L59.7941 61.01C60.0661 62.1162 60.6035 63.1394 61.3598 63.9912C61.6349 64.2811 61.9501 64.4398 62.1532 64.224C62.1715 64.2037 62.1878 64.1818 62.2019 64.1584C62.4135 64.2726 62.7118 64.1795 62.9657 63.9024C63.0867 63.7675 63.2005 63.6262 63.3064 63.4792C63.4122 63.3332 63.5349 63.1936 63.628 63.0349C63.8287 62.7286 64.0001 62.4042 64.14 62.0658C64.2628 61.7687 64.3667 61.4642 64.451 61.1539C65.15 61.1724 65.8495 61.1392 66.5436 61.0545H66.5795C66.3835 61.3913 66.1485 61.7038 65.8792 61.9854C65.681 62.1943 65.4643 62.3848 65.2318 62.5546L65.145 62.6181C65.066 62.6747 64.9949 62.7416 64.9334 62.817C64.7942 62.9818 64.7099 63.1859 64.6922 63.4009V63.9278C64.7003 64.1753 64.7647 64.4177 64.8805 64.6366C65.0371 64.863 65.1725 64.5689 65.2741 64.1288C65.3164 63.9468 65.3552 63.7606 65.3905 63.5702C65.3946 63.4846 65.4241 63.4021 65.4751 63.3332C65.528 63.2697 65.5809 63.2549 65.6867 63.1999C66.0725 63.0008 66.4286 62.7487 66.7446 62.4509C67.4188 61.7981 67.9079 60.9782 68.1622 60.0749ZM58.5839 63.4602V63.5279C58.5827 63.518 58.5827 63.5081 58.5839 63.4983C58.5833 63.4891 58.5833 63.4799 58.5839 63.4707V63.4602ZM66.6451 56.0273C66.147 55.9715 65.6463 55.9425 65.145 55.9405C64.9715 55.9405 64.8001 55.9405 64.6266 55.9532C64.5822 55.7861 64.5335 55.621 64.4764 55.4581C64.2252 54.754 63.8914 54.0821 63.482 53.4566C64.8336 53.8638 65.9701 54.7875 66.6451 56.0273ZM62.3267 56.0611C61.9436 55.9791 61.5556 55.9218 61.1652 55.8898C61.4605 55.0063 61.92 54.1866 62.5193 53.4735C62.5595 53.6131 62.6018 53.7528 62.642 53.8967C62.6822 54.0405 62.7541 54.2034 62.8197 54.3537C62.8853 54.5039 62.9361 54.6626 63.0038 54.8128C63.1698 55.2028 63.307 55.6045 63.4143 56.0146L62.3267 56.0611ZM57.7629 55.8496C57.9557 55.5168 58.1841 55.2061 58.4442 54.9228C59.2964 53.9801 60.4617 53.3787 61.7237 53.2302C61.5631 53.3219 61.4151 53.4343 61.2836 53.5645C61.1547 53.6862 61.0332 53.8155 60.9197 53.9517C60.816 54.0955 60.7081 54.25 60.6235 54.4066C60.3594 54.8664 60.133 55.3468 59.9464 55.8432C59.2165 55.8284 58.4886 55.8517 57.7629 55.8411V55.8496ZM63.0525 57.0662C63.2281 57.0788 63.4037 57.0937 63.5793 57.1021H63.6449C63.7289 57.8658 63.7487 58.6351 63.7041 59.402C63.6639 59.5924 63.6322 59.7829 63.5857 59.9691L63.573 60.0177C63.1498 60.041 62.7266 60.0664 62.3035 60.0875C61.7656 59.9651 61.2172 59.8943 60.6658 59.876C60.5711 59.462 60.5103 59.0409 60.4839 58.6171C60.5791 58.086 60.6849 57.5591 60.8097 57.0619C61.5532 57.1064 62.2988 57.1036 63.0419 57.0535L63.0525 57.0662ZM63.0102 61.7083L62.9234 61.9198L62.8218 62.1314C62.7541 62.2725 62.6885 62.4135 62.6251 62.5546L62.4029 62.9566C62.3267 63.0899 62.2633 63.2338 62.1765 63.3607L62.1427 63.4221C62.0542 63.2854 61.973 63.1441 61.8993 62.9989C61.8253 62.8529 61.7343 62.7154 61.6708 62.5652C61.5397 62.2647 61.3852 61.9791 61.2688 61.6786C61.1884 61.4967 61.1165 61.3126 61.0467 61.1285C61.6911 61.1529 62.3364 61.1345 62.9784 61.0735L63.2514 61.0926C63.2323 61.1518 63.2112 61.211 63.19 61.2682L63.0102 61.7083ZM66.5351 60.0791C65.9982 60.0106 65.4577 59.9739 64.9165 59.9691H64.6922C64.7476 59.5256 64.7709 59.0787 64.7621 58.6319C64.8545 58.1375 64.8787 57.6327 64.834 57.1317C65.528 57.1422 66.222 57.1083 66.9117 57.0302C66.9587 57.0243 67.0053 57.0159 67.0514 57.0048C67.0662 57.0535 67.0852 57.1021 67.0979 57.1529C67.3803 58.1892 67.3278 59.2882 66.9477 60.2928C66.8966 60.2315 66.8338 60.181 66.763 60.1443C66.6921 60.1076 66.6147 60.0854 66.5351 60.0791ZM64.6436 70.1716V70.4805C64.6092 70.7596 64.4889 71.0211 64.2994 71.2288C64.1098 71.4365 63.8604 71.5802 63.5857 71.6399C63.5311 71.6511 63.476 71.6596 63.4206 71.6653H61.1694C60.9484 71.6664 60.7305 71.6134 60.5346 71.5109C60.3401 71.4088 60.174 71.2601 60.051 71.078C59.928 70.896 59.8521 70.6863 59.8301 70.4678V70.0996C59.6058 69.9918 59.4035 69.8433 59.2334 69.6616C58.9492 69.357 58.7704 68.9691 58.7235 68.5551C58.7038 68.4673 58.6904 68.3782 58.6833 68.2885V68.0557L58.6706 67.6326L58.6452 66.7862C58.6435 66.7271 58.6535 66.6681 58.6746 66.6128C58.6957 66.5575 58.7275 66.5068 58.7682 66.4638C58.8089 66.4208 58.8576 66.3862 58.9117 66.362C58.9657 66.3378 59.024 66.3245 59.0832 66.3229H59.1107C60.2448 66.289 61.381 66.2573 62.5151 66.2509C63.4566 66.2509 64.4024 66.2911 65.3397 66.3419H65.3862C65.4977 66.3485 65.6022 66.3989 65.6767 66.4821C65.7512 66.5653 65.7898 66.6747 65.784 66.7862L65.765 67.1396C65.7332 67.7278 65.5364 68.134 65.2677 68.1721C64.999 68.2102 64.8657 67.8526 64.8065 67.3808C63.1138 67.457 61.3979 67.4443 59.6904 67.3998L59.7095 67.9944V68.1869C59.7114 68.2273 59.7156 68.2676 59.7222 68.3075C59.7342 68.3871 59.757 68.4647 59.7899 68.5381C59.858 68.6855 59.961 68.814 60.0901 68.9124C60.2191 69.0109 60.3703 69.0763 60.5304 69.1031H60.56C60.6982 69.1278 60.823 69.2011 60.9118 69.3097C61.0007 69.4183 61.0478 69.5552 61.0446 69.6955L61.0319 70.2604V70.3281C61.0314 70.3366 61.0314 70.3451 61.0319 70.3535C61.0348 70.3709 61.0413 70.3875 61.0509 70.4022C61.0616 70.4189 61.0755 70.4334 61.0918 70.4446C61.1082 70.4559 61.1267 70.4638 61.1461 70.4678C61.182 70.4701 61.2181 70.4701 61.254 70.4678H61.6772L62.8028 70.5122L63.3212 70.5334C63.3549 70.534 63.3885 70.5277 63.4198 70.515C63.451 70.5023 63.4794 70.4833 63.5031 70.4593C63.5283 70.434 63.5491 70.4047 63.5645 70.3726C63.572 70.3554 63.5784 70.3377 63.5835 70.3197C63.5829 70.3105 63.5829 70.3013 63.5835 70.2922V70.2244C63.5984 70.0404 63.6153 69.8563 63.6364 69.6786L63.6491 69.5791C63.658 69.5064 63.6933 69.4394 63.7483 69.3911C63.8033 69.3427 63.8742 69.3162 63.9475 69.3168C64.2328 69.3086 64.5116 69.2293 64.7585 69.0859C65.0053 68.9425 65.2124 68.7397 65.3608 68.4958C65.4227 68.3885 65.4935 68.2866 65.5724 68.1911C65.5846 68.1745 65.6005 68.161 65.6189 68.1517C65.6373 68.1424 65.6576 68.1375 65.6782 68.1375C65.6988 68.1375 65.7191 68.1424 65.7375 68.1517C65.7559 68.161 65.7718 68.1745 65.784 68.1911C65.8394 68.2786 65.8761 68.3766 65.8918 68.4789C65.9074 68.5812 65.9017 68.6857 65.875 68.7857C65.7796 69.0908 65.6205 69.3721 65.4082 69.611C65.1959 69.8499 64.9353 70.041 64.6436 70.1716ZM72.4509 58.5642C72.491 58.6913 72.5032 58.8255 72.4869 58.9577C72.4869 59.0381 72.451 59.1502 72.4319 59.146C72.0362 59.0677 71.6364 59.2814 71.2449 58.9112C71.03 58.9662 70.8116 59.0065 70.5911 59.0318C70.4493 59.0251 70.3107 58.9876 70.1849 58.9217C70.1087 58.89 70.058 58.6932 70.0516 58.4245C70.0453 58.1558 70.1066 57.9823 70.1807 57.9442C70.4235 57.8306 70.6991 57.808 70.9572 57.8807C70.9974 57.8807 71.0397 57.904 71.0799 57.9167C71.41 57.8109 71.7379 57.9527 72.068 58.0479C72.2055 58.0839 72.3388 58.2299 72.4488 58.5642H72.4509ZM69.876 60.8112C70.1393 60.8631 70.3751 61.008 70.5404 61.2195C70.5679 61.2512 70.5933 61.2872 70.6186 61.3211C70.9487 61.4311 71.1286 61.7442 71.338 62.0087C71.4248 62.1209 71.4459 62.3176 71.338 62.6435C71.2931 62.771 71.2209 62.8873 71.1264 62.9841C71.0714 63.0434 70.9826 63.1174 70.972 63.1047C70.699 62.8085 70.2505 62.7429 70.1532 62.2139C69.9472 62.1311 69.7471 62.0342 69.5544 61.9241C69.4431 61.8348 69.3528 61.7221 69.2899 61.594C69.2476 61.5242 69.3217 61.3338 69.4761 61.1158C69.6306 60.8979 69.7935 60.7985 69.876 60.8112ZM70.1997 55.9194C70.0813 55.9983 69.9469 56.0503 69.8062 56.0717C69.7279 56.0908 69.5692 55.9617 69.4063 55.748C69.2434 55.5343 69.1947 55.3587 69.2264 55.2846C69.3555 55.0493 69.5651 54.8682 69.8168 54.7747C69.8548 54.7578 69.8972 54.7451 69.9374 54.7303C70.1489 54.4489 70.4917 54.3706 70.8112 54.2521C70.9445 54.2034 71.1391 54.2521 71.4248 54.4468C71.533 54.5247 71.6232 54.625 71.6893 54.7409C71.7295 54.8107 71.7739 54.9186 71.757 54.9249C71.393 55.0963 71.1942 55.5047 70.661 55.4349C70.5185 55.6068 70.3644 55.7686 70.1997 55.9194ZM53.1991 58.0754C53.414 58.0203 53.6325 57.98 53.8529 57.9548C53.9947 57.9614 54.1333 57.999 54.2591 58.0648C54.3353 58.0966 54.3861 58.2933 54.3924 58.562C54.3988 58.8308 54.3374 59.0042 54.2633 59.0423C54.0205 59.156 53.7449 59.1785 53.4868 59.1058C53.4466 59.1058 53.4043 59.0825 53.3641 59.0698C53.0341 59.1756 52.7061 59.0339 52.376 58.9387C52.2406 58.9006 52.1052 58.7525 51.9952 58.4203C51.9545 58.2933 51.9415 58.1591 51.9571 58.0267C51.9571 57.9463 51.9931 57.8342 52.0121 57.8384C52.4078 57.9167 52.8077 57.703 53.1991 58.0754ZM53.1081 54.9757C53.0214 54.8636 53.0002 54.6668 53.1081 54.341C53.1531 54.2134 53.2253 54.0972 53.3197 54.0003C53.3747 53.9411 53.4636 53.867 53.4741 53.8797C53.7471 54.1759 54.1956 54.2415 54.293 54.7705C54.4989 54.8533 54.699 54.9502 54.8917 55.0604C55.0023 55.1499 55.0918 55.2626 55.1541 55.3904C55.1964 55.4602 55.1224 55.6507 54.9679 55.8686C54.8135 56.0865 54.6611 56.1923 54.5807 56.1796C54.3174 56.1277 54.0816 55.9828 53.9164 55.7713C53.8888 55.7395 53.8635 55.7036 53.8381 55.6697C53.4995 55.5555 53.3176 55.2465 53.1081 54.9757ZM52.7611 62.2436C52.7209 62.1737 52.6765 62.0658 52.6934 62.0595C53.0573 61.8881 53.2562 61.4798 53.7894 61.5496C53.9308 61.3807 54.0835 61.2217 54.2464 61.0735C54.3649 60.9946 54.4992 60.9426 54.64 60.9212C54.7183 60.9021 54.8769 61.0312 55.0399 61.2449C55.2028 61.4586 55.2514 61.6342 55.2197 61.7083C55.0906 61.9436 54.881 62.1247 54.6294 62.2182C54.5913 62.2351 54.549 62.2478 54.5088 62.2626C54.2972 62.544 53.9544 62.6223 53.6349 62.7408C53.5017 62.7895 53.307 62.7408 53.0214 62.5461C52.9138 62.4653 52.825 62.3621 52.7611 62.2436Z" fill="#FF8D76"/>
</g>
</g>
</g>
</g>
</g>
</g>
</g>
<defs>
<clipPath id="clip0_417_392">
<rect width="124.444" height="140" fill="white"/>
</clipPath>
<clipPath id="clip1_417_392">
<rect width="124.444" height="140" fill="white"/>
</clipPath>
<clipPath id="clip2_417_392">
<rect width="74.6667" height="35.6657" fill="white" transform="translate(24.8889 52.1671)"/>
</clipPath>
<clipPath id="clip3_417_392">
<rect width="74.6667" height="35.6657" fill="white" transform="translate(24.8889 52.1671)"/>
</clipPath>
<clipPath id="clip4_417_392">
<rect width="74.6667" height="35.6657" fill="white" transform="translate(24.8889 52.1671)"/>
</clipPath>
<clipPath id="clip5_417_392">
<rect width="74.6667" height="14.1087" fill="white" transform="translate(24.8889 73.7241)"/>
</clipPath>
<clipPath id="clip6_417_392">
<rect width="74.6667" height="14.1087" fill="white" transform="translate(24.8889 73.7241)"/>
</clipPath>
<clipPath id="clip7_417_392">
<rect width="74.6667" height="14.1087" fill="white" transform="translate(24.8889 73.7241)"/>
</clipPath>
<clipPath id="clip8_417_392">
<rect width="74.6667" height="14.1087" fill="white" transform="translate(24.8889 73.7241)"/>
</clipPath>
<clipPath id="clip9_417_392">
<rect width="20.5432" height="19.4982" fill="white" transform="translate(51.9507 52.1671)"/>
</clipPath>
<clipPath id="clip10_417_392">
<rect width="20.5432" height="19.4982" fill="white" transform="translate(51.9507 52.1671)"/>
</clipPath>
</defs>
</svg>
